<?xml version="1.0" encoding="utf-8"?>
<!-- Generator: Adobe Illustrator 16.0.0, SVG Export Plug-In . SVG Version: 6.00 Build 0)  -->
<!DOCTYPE svg PUBLIC "-//W3C//DTD SVG 1.1//EN" "http://www.w3.org/Graphics/SVG/1.1/DTD/svg11.dtd">
<svg version="1.1" id="Layer_1" xmlns="http://www.w3.org/2000/svg" xmlns:xlink="http://www.w3.org/1999/xlink" x="0px" y="0px"
	 width="15347.721px" height="14076.738px" viewBox="0 0 15347.721 14076.738" enable-background="new 0 0 15347.721 14076.738"
	 xml:space="preserve">
<g>
	<g>
		<path fill="#FFFFFF" d="M137.019,6985.667V3623.375c0-174.691,48.495-305.637,145.479-392.982
			c96.987-87.345,222.357-131.018,376.185-131.018c158.457,0,286.786,43.241,384.988,129.581
			c98.199,86.34,147.3,217.86,147.3,394.419v3362.292c0,176.702-49.101,308.653-147.3,395.999
			c-98.202,87.273-226.531,130.946-384.988,130.946c-151.475,0-276.238-44.176-374.438-132.455
			C186.043,7291.879,137.019,7160.358,137.019,6985.667z"/>
		<path fill="#FFFFFF" d="M3027.087,3172.929h1376.558c358.048,0,665.17,27.224,921.298,81.599
			c256.051,54.447,488.5,156.446,697.195,306.067c541.927,380.34,812.926,958.572,812.926,1734.624
			c0,256.146-27.242,489.953-81.656,701.42c-54.488,211.468-138.497,402.104-252.102,571.911
			c-113.608,169.807-259.164,321.583-436.593,455.475c-139.865,102.573-292.782,184.747-458.677,246.664
			c-165.892,61.917-344.307,105.519-535.095,130.659c-190.786,25.14-405.933,37.71-645.287,37.71H3049.702
			c-192,0-336.646-23.704-433.783-71.255c-97.215-47.552-160.658-114.497-190.255-200.837s-44.396-198.322-44.396-336.093V3702.532
			c0-186.184,50.846-321.009,152.538-404.475C2635.498,3214.663,2799.951,3172.929,3027.087,3172.929z M3435.221,3857.9v2896.187
			h800.859c175.532,0,313.121-3.879,412.84-11.637c99.642-7.757,202.852-27.151,309.627-58.182
			c106.778-31.031,199.362-74.703,277.681-131.018c353.494-244.509,530.315-665.577,530.315-1263.274
			c0-421.068-77.709-736.33-233.132-945.93c-155.421-209.6-347.042-342.988-574.864-400.237
			c-227.819-57.249-502.993-85.909-825.677-85.909H3435.221z"/>
		<path fill="#FFFFFF" d="M10401.226,6092.102H8502.851c2.352,181.083,46.822,340.689,133.336,478.891
			c86.516,138.201,201.412,242.354,344.842,312.461c143.357,70.105,301.51,105.087,474.537,105.087
			c116.109,0,222.205-11.134,318.205-33.544c95.924-22.411,188.963-57.464,279.047-105.159
			c90.002-47.695,172.951-98.766,248.84-153.286c75.814-54.519,174.166-128.504,295.057-221.955
			c49.785-34.981,120.891-52.508,213.324-52.508c99.492,0,180.088,22.339,241.711,66.874
			c61.621,44.606,92.434,107.602,92.434,189.057c0,71.759-34.379,155.584-103.137,251.549
			c-68.754,95.965-172.42,188.051-310.992,276.259c-138.65,88.207-312.816,161.402-522.574,219.584
			c-209.76,58.111-450.936,87.202-723.455,87.202c-623.357,0-1107.834-145.456-1453.51-436.511s-518.478-685.905-518.478-1184.621
			c0-234.741,42.575-452.458,127.798-653.294c85.225-200.836,209.529-373.013,372.92-516.601
			c163.314-143.588,364.65-253.704,604.006-330.347c239.277-76.643,504.666-115,796.154-115
			c379.145,0,704.48,65.509,975.863,196.455c271.381,130.946,474.611,300.178,609.695,507.766
			c135.082,207.589,202.625,419.057,202.625,634.403c0,199.832-69.973,329.341-209.76,388.529
			C10851.476,6062.58,10654.771,6092.102,10401.226,6092.102z M8502.851,5641.583h1759.725
			c-23.682-272.164-113.152-475.802-268.422-610.986c-155.268-135.112-359.641-202.705-613.188-202.705
			c-241.785,0-440.234,68.598-595.504,205.649C8630.19,5170.594,8536.013,5373.298,8502.851,5641.583z"/>
		<path fill="#FFFFFF" d="M12521.921,4775.458l785.686,1803.939l846.164-1882.522c66.33-151.274,131.518-258.373,195.49-321.439
			c63.975-63.067,161.189-94.601,291.566-94.601c123.244,0,228.127,33.976,314.639,101.927
			c86.514,67.951,129.771,146.533,129.771,235.818c0,34.909-7.742,75.709-23.148,122.254
			c-15.404,46.618-33.162,90.291-53.273,131.018c-20.186,40.8-43.254,87.345-69.361,139.782l-931.467,1892.505
			c-26.107,54.304-59.877,123.188-101.313,206.655c-41.512,83.466-87.729,154.865-138.648,214.054
			c-51,59.188-113.76,105.303-188.438,138.272c-74.674,32.97-165.361,49.491-271.982,49.491c-137.514,0-247.1-25.715-328.908-77.146
			c-81.809-51.431-142.217-107.673-181.299-168.873c-39.158-61.127-104.881-181.946-197.313-362.455l-924.336-1872.106
			c-21.398-46.546-43.332-93.164-65.795-139.781c-22.539-46.546-41.51-94.097-56.916-142.654
			c-15.404-48.485-23.07-90.219-23.07-125.2c0-54.304,20.109-108.176,60.408-161.546c40.297-53.37,95.998-97.042,167.109-131.018
			c71.109-33.976,148.137-51,231.082-51c161.189,0,271.988,37.854,332.396,113.492
			C12381.372,4469.964,12448.386,4597.031,12521.921,4775.458z"/>
	</g>
</g>
</svg>
