<?xml version="1.0" encoding="utf-8"?>
<!-- Generator: Adobe Illustrator 16.0.0, SVG Export Plug-In . SVG Version: 6.00 Build 0)  -->
<!DOCTYPE svg PUBLIC "-//W3C//DTD SVG 1.1//EN" "http://www.w3.org/Graphics/SVG/1.1/DTD/svg11.dtd">
<svg version="1.1" id="Layer_1" xmlns="http://www.w3.org/2000/svg" xmlns:xlink="http://www.w3.org/1999/xlink" x="0px" y="0px"
	 width="960px" height="560px" viewBox="0 0 960 560" enable-background="new 0 0 960 560" xml:space="preserve">
<path fill="#A565E1" d="M243.75,52.5c-14.547,0-26.25,11.703-26.25,26.25v52.5c0,14.547,11.703,26.25,26.25,26.25h52.5
	c14.547,0,26.25-11.703,26.25-26.25v-52.5c0-14.547-11.703-26.25-26.25-26.25H243.75z M410,70c-19.359,0-35,15.641-35,35
	s15.641,35,35,35h315c19.359,0,35-15.641,35-35s-15.641-35-35-35H410z M410,245c-19.359,0-35,15.641-35,35s15.641,35,35,35h315
	c19.359,0,35-15.641,35-35s-15.641-35-35-35H410z M410,420c-19.359,0-35,15.641-35,35s15.641,35,35,35h315c19.359,0,35-15.641,35-35
	s-15.641-35-35-35H410z M217.5,253.75v52.5c0,14.547,11.703,26.25,26.25,26.25h52.5c14.547,0,26.25-11.703,26.25-26.25v-52.5
	c0-14.547-11.703-26.25-26.25-26.25h-52.5C229.203,227.5,217.5,239.203,217.5,253.75z M243.75,402.5
	c-14.547,0-26.25,11.703-26.25,26.25v52.5c0,14.547,11.703,26.25,26.25,26.25h52.5c14.547,0,26.25-11.703,26.25-26.25v-52.5
	c0-14.547-11.703-26.25-26.25-26.25H243.75z"/>
</svg>
